<svg width="32" height="33" viewBox="0 0 32 33" fill="none" xmlns="http://www.w3.org/2000/svg">
<g id="radio">
<path id="Vector" d="M16 18.9392C17.4727 18.9392 18.6666 17.7453 18.6666 16.2725C18.6666 14.7997 17.4727 13.6058 16 13.6058C14.5272 13.6058 13.3333 14.7997 13.3333 16.2725C13.3333 17.7453 14.5272 18.9392 16 18.9392Z" stroke="black" stroke-width="2.66667" stroke-linecap="round" stroke-linejoin="round"/>
<path id="Vector_2" d="M21.6533 10.6192C22.3971 11.3621 22.9871 12.2445 23.3897 13.2156C23.7923 14.1868 23.9995 15.2278 23.9995 16.2792C23.9995 17.3305 23.7923 18.3715 23.3897 19.3427C22.9871 20.3139 22.3971 21.1962 21.6533 21.9392M10.3466 21.9258C9.60278 21.1828 9.0127 20.3005 8.61011 19.3293C8.20751 18.3582 8.00029 17.3171 8.00029 16.2658C8.00029 15.2145 8.20751 14.1735 8.61011 13.2023C9.0127 12.2311 9.60278 11.3488 10.3466 10.6058M25.4266 6.84583C27.9262 9.34619 29.3304 12.737 29.3304 16.2725C29.3304 19.808 27.9262 23.1988 25.4266 25.6992M6.57325 25.6992C4.07364 23.1988 2.66943 19.808 2.66943 16.2725C2.66943 12.737 4.07364 9.34619 6.57325 6.84583" stroke="black" stroke-width="2.66667" stroke-linecap="round" stroke-linejoin="round"/>
</g>
</svg>
