<svg width="32" height="33" viewBox="0 0 32 33" fill="none" xmlns="http://www.w3.org/2000/svg">
<g id="settings" clip-path="url(#clip0_13_131)">
<path id="Vector" d="M16 20.2725C18.2091 20.2725 20 18.4816 20 16.2725C20 14.0633 18.2091 12.2725 16 12.2725C13.7909 12.2725 12 14.0633 12 16.2725C12 18.4816 13.7909 20.2725 16 20.2725Z" stroke="black" stroke-width="2.66667" stroke-linecap="round" stroke-linejoin="round"/>
<path id="Vector_2" d="M25.8666 20.2725C25.6892 20.6747 25.6362 21.1208 25.7146 21.5533C25.7931 21.9858 25.9993 22.3849 26.3066 22.6992L26.3866 22.7792C26.6346 23.0268 26.8313 23.3209 26.9655 23.6447C27.0997 23.9684 27.1687 24.3154 27.1687 24.6658C27.1687 25.0163 27.0997 25.3633 26.9655 25.687C26.8313 26.0107 26.6346 26.3048 26.3866 26.5525C26.139 26.8004 25.8449 26.9971 25.5212 27.1313C25.1974 27.2655 24.8504 27.3346 24.5 27.3346C24.1495 27.3346 23.8025 27.2655 23.4788 27.1313C23.1551 26.9971 22.861 26.8004 22.6133 26.5525L22.5333 26.4725C22.2191 26.1651 21.82 25.9589 21.3874 25.8805C20.9549 25.8021 20.5088 25.855 20.1066 26.0325C19.7123 26.2015 19.376 26.4822 19.1391 26.8399C18.9022 27.1976 18.775 27.6168 18.7733 28.0458V28.2725C18.7733 28.9797 18.4924 29.658 17.9923 30.1581C17.4922 30.6582 16.8139 30.9392 16.1066 30.9392C15.3994 30.9392 14.7211 30.6582 14.221 30.1581C13.7209 29.658 13.44 28.9797 13.44 28.2725V28.1525C13.4297 27.7112 13.2868 27.2832 13.03 26.9241C12.7732 26.565 12.4143 26.2915 12 26.1392C11.5978 25.9617 11.1517 25.9087 10.7192 25.9872C10.2867 26.0656 9.88755 26.2718 9.57331 26.5792L9.49331 26.6592C9.24565 26.9071 8.95155 27.1038 8.62782 27.238C8.30409 27.3722 7.95709 27.4413 7.60665 27.4413C7.25621 27.4413 6.9092 27.3722 6.58547 27.238C6.26174 27.1038 5.96764 26.9071 5.71998 26.6592C5.47204 26.4115 5.27535 26.1174 5.14115 25.7937C5.00696 25.4699 4.93788 25.1229 4.93788 24.7725C4.93788 24.4221 5.00696 24.0751 5.14115 23.7513C5.27535 23.4276 5.47204 23.1335 5.71998 22.8858L5.79998 22.8058C6.10736 22.4916 6.31356 22.0925 6.39199 21.66C6.47041 21.2274 6.41747 20.7813 6.23998 20.3792C6.07096 19.9848 5.79032 19.6485 5.4326 19.4116C5.07488 19.1747 4.6557 19.0475 4.22665 19.0458H3.99998C3.29274 19.0458 2.61446 18.7649 2.11436 18.2648C1.61426 17.7647 1.33331 17.0864 1.33331 16.3792C1.33331 15.6719 1.61426 14.9936 2.11436 14.4936C2.61446 13.9935 3.29274 13.7125 3.99998 13.7125H4.11998C4.56131 13.7022 4.98932 13.5593 5.34838 13.3025C5.70744 13.0457 5.98093 12.6868 6.13331 12.2725C6.3108 11.8703 6.36374 11.4242 6.28532 10.9917C6.20689 10.5592 6.0007 10.1601 5.69331 9.84583L5.61331 9.76584C5.36538 9.51817 5.16869 9.22407 5.03449 8.90034C4.90029 8.57661 4.83122 8.22961 4.83122 7.87917C4.83122 7.52873 4.90029 7.18172 5.03449 6.85799C5.16869 6.53427 5.36538 6.24016 5.61331 5.9925C5.86097 5.74456 6.15508 5.54787 6.47881 5.41368C6.80253 5.27948 7.14954 5.2104 7.49998 5.2104C7.85042 5.2104 8.19743 5.27948 8.52115 5.41368C8.84488 5.54787 9.13898 5.74456 9.38665 5.9925L9.46665 6.0725C9.78089 6.37988 10.18 6.58608 10.6125 6.66451C11.0451 6.74293 11.4912 6.68999 11.8933 6.5125H12C12.3943 6.34348 12.7307 6.06284 12.9676 5.70512C13.2045 5.3474 13.3316 4.92822 13.3333 4.49917V4.2725C13.3333 3.56526 13.6143 2.88698 14.1144 2.38688C14.6145 1.88679 15.2927 1.60583 16 1.60583C16.7072 1.60583 17.3855 1.88679 17.8856 2.38688C18.3857 2.88698 18.6666 3.56526 18.6666 4.2725V4.3925C18.6684 4.82155 18.7955 5.24074 19.0324 5.59846C19.2693 5.95618 19.6056 6.23682 20 6.40583C20.4021 6.58332 20.8482 6.63627 21.2808 6.55784C21.7133 6.47942 22.1124 6.27322 22.4266 5.96584L22.5066 5.88584C22.7543 5.6379 23.0484 5.44121 23.3721 5.30701C23.6959 5.17281 24.0429 5.10374 24.3933 5.10374C24.7438 5.10374 25.0908 5.17281 25.4145 5.30701C25.7382 5.44121 26.0323 5.6379 26.28 5.88584C26.5279 6.1335 26.7246 6.4276 26.8588 6.75133C26.993 7.07506 27.0621 7.42206 27.0621 7.7725C27.0621 8.12294 26.993 8.46995 26.8588 8.79368C26.7246 9.1174 26.5279 9.41151 26.28 9.65917L26.2 9.73917C25.8926 10.0534 25.6864 10.4525 25.608 10.8851C25.5295 11.3176 25.5825 11.7637 25.76 12.1658V12.2725C25.929 12.6669 26.2096 13.0032 26.5674 13.2401C26.9251 13.477 27.3443 13.6041 27.7733 13.6058H28C28.7072 13.6058 29.3855 13.8868 29.8856 14.3869C30.3857 14.887 30.6666 15.5653 30.6666 16.2725C30.6666 16.9797 30.3857 17.658 29.8856 18.1581C29.3855 18.6582 28.7072 18.9392 28 18.9392H27.88C27.4509 18.9409 27.0317 19.068 26.674 19.3049C26.3163 19.5418 26.0357 19.8781 25.8666 20.2725Z" stroke="black" stroke-width="2.66667" stroke-linecap="round" stroke-linejoin="round"/>
</g>
<defs>
<clipPath id="clip0_13_131">
<rect width="32" height="32" fill="white" transform="translate(0 0.272461)"/>
</clipPath>
</defs>
</svg>
