<svg width="32" height="33" viewBox="0 0 32 33" fill="none" xmlns="http://www.w3.org/2000/svg">
<g id="users">
<path id="Vector" d="M22.6666 28.2725V25.6058C22.6666 24.1913 22.1047 22.8348 21.1045 21.8346C20.1044 20.8344 18.7478 20.2725 17.3333 20.2725H6.66665C5.25216 20.2725 3.8956 20.8344 2.89541 21.8346C1.89522 22.8348 1.33331 24.1913 1.33331 25.6058V28.2725" stroke="white" stroke-width="2.66667" stroke-linecap="round" stroke-linejoin="round"/>
<path id="Vector_2" d="M12 14.9391C14.9455 14.9391 17.3334 12.5513 17.3334 9.60579C17.3334 6.66028 14.9455 4.27246 12 4.27246C9.0545 4.27246 6.66669 6.66028 6.66669 9.60579C6.66669 12.5513 9.0545 14.9391 12 14.9391Z" stroke="white" stroke-width="2.66667" stroke-linecap="round" stroke-linejoin="round"/>
<path id="Vector_3" d="M30.6667 28.2725V25.6058C30.6658 24.4241 30.2725 23.2762 29.5485 22.3422C28.8245 21.4083 27.8109 20.7412 26.6667 20.4458" stroke="white" stroke-width="2.66667" stroke-linecap="round" stroke-linejoin="round"/>
<path id="Vector_4" d="M21.3333 4.4458C22.4805 4.73954 23.4974 5.40674 24.2235 6.34221C24.9496 7.27769 25.3438 8.42824 25.3438 9.61247C25.3438 10.7967 24.9496 11.9472 24.2235 12.8827C23.4974 13.8182 22.4805 14.4854 21.3333 14.7791" stroke="white" stroke-width="2.66667" stroke-linecap="round" stroke-linejoin="round"/>
</g>
</svg>
