<svg width="329" height="198" viewBox="0 0 329 198" fill="none" xmlns="http://www.w3.org/2000/svg">
<path d="M0 70.6001H329" stroke="white" stroke-opacity="0.1" stroke-width="0.441019" stroke-miterlimit="16" stroke-dasharray="1.76 1.76 1.76 1.76"/>
<path d="M0 100.005H329" stroke="white" stroke-opacity="0.1" stroke-width="0.441019" stroke-miterlimit="16" stroke-dasharray="1.76 1.76 1.76 1.76"/>
<path d="M0 119.41H329" stroke="white" stroke-opacity="0.1" stroke-width="0.441019" stroke-miterlimit="16" stroke-dasharray="1.76 1.76 1.76 1.76"/>
<path d="M0 138.814H329" stroke="white" stroke-opacity="0.1" stroke-width="0.441019" stroke-miterlimit="16" stroke-dasharray="1.76 1.76 1.76 1.76"/>
<path d="M0 158.219H329" stroke="white" stroke-opacity="0.1" stroke-width="0.441019" stroke-miterlimit="16" stroke-dasharray="1.76 1.76 1.76 1.76"/>
<path d="M0 177.624H329" stroke="white" stroke-opacity="0.1" stroke-width="0.441019" stroke-miterlimit="16" stroke-dasharray="1.76 1.76 1.76 1.76"/>
<path d="M0 197.029H329" stroke="white" stroke-opacity="0.1" stroke-width="0.441019"/>
<path d="M192 0L191.623 197.249" stroke="#168FFF" stroke-width="0.441019" stroke-dasharray="1.94 1.94"/>
<path d="M7.0564 177.183L37.9277 165.937L67.917 172.111L99.6703 148.296L130.101 159.542L160.751 145.209L191.623 111.691L222.715 105.297L252.704 148.958L284.898 154.47L315.329 90.0815" stroke="#168FFF" stroke-width="0.882038"/>
<path d="M6.83569 187.988L37.707 158.66H67.9168L99.6701 166.819H130.1L161.192 136.168L191.623 135.727L222.935 129.994L253.145 118.969L284.898 125.364L315.108 129.994" stroke="#17CB49" stroke-width="0.882038"/>
<path d="M6.83569 193.28L37.707 173.214L67.6963 176.08L99.4496 159.101L130.321 152.045L160.751 156.896H191.402L222.935 171.67L252.924 171.229L285.119 167.701L315.108 152.045" stroke="#FC5130" stroke-width="0.882038"/>
<circle cx="7.05631" cy="187.767" r="1.76408" fill="#17CB49"/>
<circle cx="7.05631" cy="193.059" r="1.76408" fill="#FC5130"/>
<circle cx="37.9277" cy="173.655" r="1.76408" fill="#FC5130"/>
<circle cx="67.9169" cy="175.86" r="1.76408" fill="#FC5130"/>
<circle cx="99.2294" cy="159.101" r="1.76408" fill="#FC5130"/>
<circle cx="130.1" cy="152.044" r="1.76408" fill="#FC5130"/>
<circle cx="160.972" cy="156.896" r="1.76408" fill="#FC5130"/>
<circle cx="191.843" cy="156.896" r="3.08713" fill="white" stroke="#FC5130" stroke-width="0.882038"/>
<circle cx="223.156" cy="171.45" r="1.76408" fill="#FC5130"/>
<circle cx="253.145" cy="171.009" r="1.76408" fill="#FC5130"/>
<circle cx="284.898" cy="167.481" r="1.76408" fill="#FC5130"/>
<circle cx="314.887" cy="152.486" r="1.76408" fill="#FC5130"/>
<circle cx="7.05631" cy="177.183" r="1.76408" fill="#168FFF"/>
<circle cx="37.9277" cy="166.158" r="1.76408" fill="#168FFF"/>
<circle cx="67.9169" cy="171.891" r="1.76408" fill="#168FFF"/>
<circle cx="99.2294" cy="148.517" r="1.76408" fill="#168FFF"/>
<circle cx="130.1" cy="159.101" r="1.76408" fill="#168FFF"/>
<circle cx="160.972" cy="144.989" r="1.76408" fill="#168FFF"/>
<circle cx="191.843" cy="111.912" r="3.08713" fill="white" stroke="#168FFF" stroke-width="0.882038"/>
<circle cx="223.156" cy="106.179" r="1.76408" fill="#168FFF"/>
<circle cx="253.145" cy="148.957" r="1.76408" fill="#168FFF"/>
<circle cx="284.898" cy="153.809" r="1.76408" fill="#168FFF"/>
<circle cx="314.887" cy="91.184" r="1.76408" fill="#168FFF"/>
<circle cx="37.9277" cy="158.44" r="1.76408" fill="#17CB49"/>
<circle cx="67.9169" cy="158.44" r="1.76408" fill="#17CB49"/>
<circle cx="99.2294" cy="166.819" r="1.76408" fill="#17CB49"/>
<circle cx="130.1" cy="166.819" r="1.76408" fill="#17CB49"/>
<circle cx="160.972" cy="136.389" r="1.76408" fill="#17CB49"/>
<circle cx="191.843" cy="135.507" r="3.08713" fill="white" stroke="#17CB49" stroke-width="0.882038"/>
<circle cx="223.156" cy="129.773" r="1.76408" fill="#17CB49"/>
<circle cx="253.145" cy="119.189" r="1.76408" fill="#17CB49"/>
<circle cx="284.898" cy="125.363" r="1.76408" fill="#17CB49"/>
<circle cx="314.887" cy="129.773" r="1.76408" fill="#17CB49"/>
<path d="M36.347 43.1831C35.9908 43.1831 35.6603 43.1198 35.3557 42.9933C35.0557 42.862 34.7932 42.6816 34.5682 42.4519C34.3433 42.2175 34.1698 41.948 34.048 41.6434C33.9261 41.334 33.8652 41.0036 33.8652 40.652C33.8652 40.3005 33.9261 39.9724 34.048 39.6677C34.1698 39.3584 34.3433 39.0889 34.5682 38.8592C34.7932 38.6295 35.0557 38.4491 35.3557 38.3178C35.6603 38.1866 35.9908 38.121 36.347 38.121C36.7454 38.121 37.0899 38.1866 37.3805 38.3178C37.6711 38.4491 37.9289 38.6272 38.1539 38.8522L37.6055 39.4006C37.4602 39.2412 37.2821 39.117 37.0712 39.0279C36.8649 38.9389 36.6235 38.8944 36.347 38.8944C36.1033 38.8944 35.8806 38.9366 35.6791 39.0209C35.4775 39.1053 35.3018 39.2272 35.1518 39.3865C35.0065 39.5412 34.894 39.7263 34.8143 39.9419C34.7346 40.1576 34.6948 40.3943 34.6948 40.652C34.6948 40.9098 34.7346 41.1465 34.8143 41.3621C34.894 41.5778 35.0065 41.7652 35.1518 41.9246C35.3018 42.0793 35.4775 42.1988 35.6791 42.2832C35.8806 42.3675 36.1033 42.4097 36.347 42.4097C36.647 42.4097 36.9001 42.3652 37.1063 42.2761C37.3172 42.1824 37.4954 42.0558 37.6407 41.8965L38.1891 42.4449C37.9641 42.6745 37.6992 42.855 37.3946 42.9862C37.0899 43.1175 36.7407 43.1831 36.347 43.1831ZM38.8051 43.1128V38.0507H39.5784V43.1128H38.8051ZM41.8523 43.1831C41.5477 43.1831 41.2711 43.1058 41.0227 42.9511C40.779 42.7964 40.5845 42.5878 40.4392 42.3254C40.2985 42.0582 40.2282 41.7606 40.2282 41.4325C40.2282 41.0997 40.2985 40.802 40.4392 40.5396C40.5845 40.2724 40.779 40.0615 41.0227 39.9068C41.2711 39.7474 41.5477 39.6677 41.8523 39.6677C42.1101 39.6677 42.3374 39.724 42.5343 39.8365C42.7359 39.9443 42.8952 40.0943 43.0124 40.2864C43.1296 40.4786 43.1882 40.6966 43.1882 40.9403V41.9105C43.1882 42.1543 43.1296 42.3722 43.0124 42.5644C42.8999 42.7566 42.7429 42.9089 42.5413 43.0214C42.3398 43.1292 42.1101 43.1831 41.8523 43.1831ZM41.9789 42.4519C42.2648 42.4519 42.4945 42.3558 42.6679 42.1636C42.846 41.9715 42.9351 41.7254 42.9351 41.4254C42.9351 41.2239 42.8952 41.0458 42.8155 40.8911C42.7359 40.7364 42.6234 40.6169 42.4781 40.5325C42.3374 40.4435 42.1711 40.3989 41.9789 40.3989C41.7914 40.3989 41.625 40.4435 41.4797 40.5325C41.3391 40.6169 41.2266 40.7364 41.1422 40.8911C41.0625 41.0458 41.0227 41.2239 41.0227 41.4254C41.0227 41.627 41.0625 41.8051 41.1422 41.9598C41.2266 42.1144 41.3391 42.2363 41.4797 42.3254C41.625 42.4097 41.7914 42.4519 41.9789 42.4519ZM42.8858 43.1128V42.2058L43.0194 41.3832L42.8858 40.5677V39.7381H43.6592V43.1128H42.8858ZM45.6213 43.1831C45.4339 43.1831 45.2534 43.1597 45.08 43.1128C44.9065 43.0612 44.7472 42.9909 44.6019 42.9019C44.4566 42.8081 44.33 42.6956 44.2222 42.5644L44.7144 42.0722C44.8316 42.2082 44.9651 42.3113 45.1151 42.3816C45.2698 42.4472 45.4432 42.48 45.6354 42.48C45.8088 42.48 45.9401 42.4542 46.0291 42.4027C46.1182 42.3511 46.1627 42.2761 46.1627 42.1777C46.1627 42.0746 46.1205 41.9949 46.0361 41.9387C45.9518 41.8824 45.8416 41.8355 45.7057 41.798C45.5745 41.7559 45.4339 41.7137 45.2839 41.6715C45.1386 41.6293 44.9979 41.5731 44.862 41.5028C44.7308 41.4278 44.623 41.327 44.5386 41.2004C44.4542 41.0739 44.4121 40.9098 44.4121 40.7083C44.4121 40.4927 44.4613 40.3075 44.5597 40.1529C44.6628 39.9982 44.8058 39.8787 44.9886 39.7943C45.1761 39.7099 45.3987 39.6677 45.6565 39.6677C45.9283 39.6677 46.1674 39.717 46.3736 39.8154C46.5845 39.9091 46.7603 40.0521 46.9009 40.2443L46.4088 40.7364C46.3103 40.6145 46.1979 40.5231 46.0713 40.4622C45.9447 40.4013 45.7994 40.3708 45.6354 40.3708C45.4807 40.3708 45.3612 40.3943 45.2768 40.4411C45.1925 40.488 45.1503 40.556 45.1503 40.645C45.1503 40.7388 45.1925 40.8114 45.2768 40.863C45.3612 40.9145 45.469 40.9591 45.6002 40.9965C45.7362 41.034 45.8768 41.0762 46.0221 41.1231C46.1721 41.1653 46.3127 41.2262 46.4439 41.3059C46.5799 41.3809 46.69 41.484 46.7744 41.6153C46.8587 41.7418 46.9009 41.9082 46.9009 42.1144C46.9009 42.4425 46.7861 42.7027 46.5564 42.8948C46.3268 43.087 46.0151 43.1831 45.6213 43.1831ZM48.6423 43.1831C48.4549 43.1831 48.2744 43.1597 48.101 43.1128C47.9276 43.0612 47.7682 42.9909 47.6229 42.9019C47.4776 42.8081 47.351 42.6956 47.2432 42.5644L47.7354 42.0722C47.8526 42.2082 47.9861 42.3113 48.1361 42.3816C48.2908 42.4472 48.4642 42.48 48.6564 42.48C48.8298 42.48 48.9611 42.4542 49.0501 42.4027C49.1392 42.3511 49.1837 42.2761 49.1837 42.1777C49.1837 42.0746 49.1415 41.9949 49.0572 41.9387C48.9728 41.8824 48.8626 41.8355 48.7267 41.798C48.5955 41.7559 48.4549 41.7137 48.3049 41.6715C48.1596 41.6293 48.019 41.5731 47.883 41.5028C47.7518 41.4278 47.644 41.327 47.5596 41.2004C47.4752 41.0739 47.4331 40.9098 47.4331 40.7083C47.4331 40.4927 47.4823 40.3075 47.5807 40.1529C47.6838 39.9982 47.8268 39.8787 48.0096 39.7943C48.1971 39.7099 48.4197 39.6677 48.6775 39.6677C48.9494 39.6677 49.1884 39.717 49.3946 39.8154C49.6056 39.9091 49.7813 40.0521 49.9219 40.2443L49.4298 40.7364C49.3314 40.6145 49.2189 40.5231 49.0923 40.4622C48.9658 40.4013 48.8205 40.3708 48.6564 40.3708C48.5017 40.3708 48.3822 40.3943 48.2978 40.4411C48.2135 40.488 48.1713 40.556 48.1713 40.645C48.1713 40.7388 48.2135 40.8114 48.2978 40.863C48.3822 40.9145 48.49 40.9591 48.6213 40.9965C48.7572 41.034 48.8978 41.0762 49.0431 41.1231C49.1931 41.1653 49.3337 41.2262 49.4649 41.3059C49.6009 41.3809 49.711 41.484 49.7954 41.6153C49.8798 41.7418 49.9219 41.9082 49.9219 42.1144C49.9219 42.4425 49.8071 42.7027 49.5774 42.8948C49.3478 43.087 49.0361 43.1831 48.6423 43.1831ZM52.7053 43.1128V38.1913H53.4997V43.1128H52.7053ZM51.721 38.9155V38.1913H53.4294V38.9155H51.721Z" fill="black" fill-opacity="0.4"/>
<path d="M36.347 57.0703C35.9908 57.0703 35.6603 57.007 35.3557 56.8805C35.0557 56.7492 34.7932 56.5688 34.5682 56.3391C34.3433 56.1048 34.1698 55.8352 34.048 55.5306C33.9261 55.2212 33.8652 54.8908 33.8652 54.5393C33.8652 54.1877 33.9261 53.8596 34.048 53.555C34.1698 53.2456 34.3433 52.9761 34.5682 52.7464C34.7932 52.5167 35.0557 52.3363 35.3557 52.2051C35.6603 52.0738 35.9908 52.0082 36.347 52.0082C36.7454 52.0082 37.0899 52.0738 37.3805 52.2051C37.6711 52.3363 37.9289 52.5144 38.1539 52.7394L37.6055 53.2878C37.4602 53.1284 37.2821 53.0042 37.0712 52.9152C36.8649 52.8261 36.6235 52.7816 36.347 52.7816C36.1033 52.7816 35.8806 52.8238 35.6791 52.9081C35.4775 52.9925 35.3018 53.1144 35.1518 53.2737C35.0065 53.4284 34.894 53.6135 34.8143 53.8291C34.7346 54.0448 34.6948 54.2815 34.6948 54.5393C34.6948 54.797 34.7346 55.0337 34.8143 55.2494C34.894 55.465 35.0065 55.6524 35.1518 55.8118C35.3018 55.9665 35.4775 56.086 35.6791 56.1704C35.8806 56.2547 36.1033 56.2969 36.347 56.2969C36.647 56.2969 36.9001 56.2524 37.1063 56.1633C37.3172 56.0696 37.4954 55.943 37.6407 55.7837L38.1891 56.3321C37.9641 56.5618 37.6992 56.7422 37.3946 56.8734C37.0899 57.0047 36.7407 57.0703 36.347 57.0703ZM38.8051 57V51.9379H39.5784V57H38.8051ZM41.8523 57.0703C41.5477 57.0703 41.2711 56.993 41.0227 56.8383C40.779 56.6836 40.5845 56.475 40.4392 56.2126C40.2985 55.9454 40.2282 55.6478 40.2282 55.3197C40.2282 54.9869 40.2985 54.6892 40.4392 54.4268C40.5845 54.1596 40.779 53.9487 41.0227 53.794C41.2711 53.6346 41.5477 53.555 41.8523 53.555C42.1101 53.555 42.3374 53.6112 42.5343 53.7237C42.7359 53.8315 42.8952 53.9815 43.0124 54.1737C43.1296 54.3658 43.1882 54.5838 43.1882 54.8275V55.7977C43.1882 56.0415 43.1296 56.2594 43.0124 56.4516C42.8999 56.6438 42.7429 56.7961 42.5413 56.9086C42.3398 57.0164 42.1101 57.0703 41.8523 57.0703ZM41.9789 56.3391C42.2648 56.3391 42.4945 56.243 42.6679 56.0509C42.846 55.8587 42.9351 55.6126 42.9351 55.3126C42.9351 55.1111 42.8952 54.933 42.8155 54.7783C42.7359 54.6236 42.6234 54.5041 42.4781 54.4197C42.3374 54.3307 42.1711 54.2861 41.9789 54.2861C41.7914 54.2861 41.625 54.3307 41.4797 54.4197C41.3391 54.5041 41.2266 54.6236 41.1422 54.7783C41.0625 54.933 41.0227 55.1111 41.0227 55.3126C41.0227 55.5142 41.0625 55.6923 41.1422 55.847C41.2266 56.0016 41.3391 56.1235 41.4797 56.2126C41.625 56.2969 41.7914 56.3391 41.9789 56.3391ZM42.8858 57V56.093L43.0194 55.2704L42.8858 54.4549V53.6253H43.6592V57H42.8858ZM45.6213 57.0703C45.4339 57.0703 45.2534 57.0469 45.08 57C44.9065 56.9484 44.7472 56.8781 44.6019 56.7891C44.4566 56.6953 44.33 56.5828 44.2222 56.4516L44.7144 55.9595C44.8316 56.0954 44.9651 56.1985 45.1151 56.2688C45.2698 56.3344 45.4432 56.3672 45.6354 56.3672C45.8088 56.3672 45.9401 56.3415 46.0291 56.2899C46.1182 56.2383 46.1627 56.1633 46.1627 56.0649C46.1627 55.9618 46.1205 55.8821 46.0361 55.8259C45.9518 55.7696 45.8416 55.7228 45.7057 55.6853C45.5745 55.6431 45.4339 55.6009 45.2839 55.5587C45.1386 55.5165 44.9979 55.4603 44.862 55.39C44.7308 55.315 44.623 55.2142 44.5386 55.0876C44.4542 54.9611 44.4121 54.797 44.4121 54.5955C44.4121 54.3799 44.4613 54.1947 44.5597 54.0401C44.6628 53.8854 44.8058 53.7659 44.9886 53.6815C45.1761 53.5971 45.3987 53.555 45.6565 53.555C45.9283 53.555 46.1674 53.6042 46.3736 53.7026C46.5845 53.7963 46.7603 53.9393 46.9009 54.1315L46.4088 54.6236C46.3103 54.5018 46.1979 54.4104 46.0713 54.3494C45.9447 54.2885 45.7994 54.258 45.6354 54.258C45.4807 54.258 45.3612 54.2815 45.2768 54.3283C45.1925 54.3752 45.1503 54.4432 45.1503 54.5322C45.1503 54.626 45.1925 54.6986 45.2768 54.7502C45.3612 54.8017 45.469 54.8463 45.6002 54.8838C45.7362 54.9213 45.8768 54.9634 46.0221 55.0103C46.1721 55.0525 46.3127 55.1134 46.4439 55.1931C46.5799 55.2681 46.69 55.3712 46.7744 55.5025C46.8587 55.629 46.9009 55.7954 46.9009 56.0016C46.9009 56.3297 46.7861 56.5899 46.5564 56.782C46.3268 56.9742 46.0151 57.0703 45.6213 57.0703ZM48.6423 57.0703C48.4549 57.0703 48.2744 57.0469 48.101 57C47.9276 56.9484 47.7682 56.8781 47.6229 56.7891C47.4776 56.6953 47.351 56.5828 47.2432 56.4516L47.7354 55.9595C47.8526 56.0954 47.9861 56.1985 48.1361 56.2688C48.2908 56.3344 48.4642 56.3672 48.6564 56.3672C48.8298 56.3672 48.9611 56.3415 49.0501 56.2899C49.1392 56.2383 49.1837 56.1633 49.1837 56.0649C49.1837 55.9618 49.1415 55.8821 49.0572 55.8259C48.9728 55.7696 48.8626 55.7228 48.7267 55.6853C48.5955 55.6431 48.4549 55.6009 48.3049 55.5587C48.1596 55.5165 48.019 55.4603 47.883 55.39C47.7518 55.315 47.644 55.2142 47.5596 55.0876C47.4752 54.9611 47.4331 54.797 47.4331 54.5955C47.4331 54.3799 47.4823 54.1947 47.5807 54.0401C47.6838 53.8854 47.8268 53.7659 48.0096 53.6815C48.1971 53.5971 48.4197 53.555 48.6775 53.555C48.9494 53.555 49.1884 53.6042 49.3946 53.7026C49.6056 53.7963 49.7813 53.9393 49.9219 54.1315L49.4298 54.6236C49.3314 54.5018 49.2189 54.4104 49.0923 54.3494C48.9658 54.2885 48.8205 54.258 48.6564 54.258C48.5017 54.258 48.3822 54.2815 48.2978 54.3283C48.2135 54.3752 48.1713 54.4432 48.1713 54.5322C48.1713 54.626 48.2135 54.6986 48.2978 54.7502C48.3822 54.8017 48.49 54.8463 48.6213 54.8838C48.7572 54.9213 48.8978 54.9634 49.0431 55.0103C49.1931 55.0525 49.3337 55.1134 49.4649 55.1931C49.6009 55.2681 49.711 55.3712 49.7954 55.5025C49.8798 55.629 49.9219 55.7954 49.9219 56.0016C49.9219 56.3297 49.8071 56.5899 49.5774 56.782C49.3478 56.9742 49.0361 57.0703 48.6423 57.0703ZM51.735 56.5219L53.549 54.5955C53.6989 54.4361 53.8208 54.2932 53.9146 54.1666C54.0083 54.0401 54.0763 53.9205 54.1184 53.8081C54.1606 53.6956 54.1817 53.5807 54.1817 53.4636C54.1817 53.2433 54.1091 53.0722 53.9638 52.9503C53.8232 52.8238 53.6427 52.7605 53.4224 52.7605C53.188 52.7605 52.9818 52.8191 52.8037 52.9362C52.6256 53.0534 52.4662 53.2362 52.3256 53.4846L51.7632 53.0206C51.9553 52.6878 52.192 52.4371 52.4733 52.2683C52.7545 52.0949 53.0802 52.0082 53.4505 52.0082C53.7552 52.0082 54.0224 52.0691 54.252 52.191C54.4817 52.3129 54.6598 52.4839 54.7864 52.7042C54.9129 52.9198 54.9762 53.1706 54.9762 53.4565C54.9762 53.6628 54.9504 53.8479 54.8989 54.0119C54.852 54.1713 54.77 54.333 54.6528 54.4971C54.5356 54.6564 54.3739 54.8439 54.1677 55.0595L52.7756 56.5008L51.735 56.5219ZM51.735 57V56.5219L52.4311 56.2758H55.0746V57H51.735Z" fill="black" fill-opacity="0.4"/>
<path d="M36.347 70.9575C35.9908 70.9575 35.6603 70.8942 35.3557 70.7677C35.0557 70.6364 34.7932 70.456 34.5682 70.2263C34.3433 69.992 34.1698 69.7225 34.048 69.4178C33.9261 69.1084 33.8652 68.778 33.8652 68.4265C33.8652 68.0749 33.9261 67.7468 34.048 67.4422C34.1698 67.1328 34.3433 66.8633 34.5682 66.6336C34.7932 66.404 35.0557 66.2235 35.3557 66.0923C35.6603 65.961 35.9908 65.8954 36.347 65.8954C36.7454 65.8954 37.0899 65.961 37.3805 66.0923C37.6711 66.2235 37.9289 66.4016 38.1539 66.6266L37.6055 67.175C37.4602 67.0156 37.2821 66.8914 37.0712 66.8024C36.8649 66.7133 36.6235 66.6688 36.347 66.6688C36.1033 66.6688 35.8806 66.711 35.6791 66.7953C35.4775 66.8797 35.3018 67.0016 35.1518 67.1609C35.0065 67.3156 34.894 67.5007 34.8143 67.7164C34.7346 67.932 34.6948 68.1687 34.6948 68.4265C34.6948 68.6843 34.7346 68.921 34.8143 69.1366C34.894 69.3522 35.0065 69.5397 35.1518 69.699C35.3018 69.8537 35.4775 69.9732 35.6791 70.0576C35.8806 70.142 36.1033 70.1841 36.347 70.1841C36.647 70.1841 36.9001 70.1396 37.1063 70.0506C37.3172 69.9568 37.4954 69.8303 37.6407 69.6709L38.1891 70.2193C37.9641 70.449 37.6992 70.6294 37.3946 70.7607C37.0899 70.8919 36.7407 70.9575 36.347 70.9575ZM38.8051 70.8872V65.8251H39.5784V70.8872H38.8051ZM41.8523 70.9575C41.5477 70.9575 41.2711 70.8802 41.0227 70.7255C40.779 70.5708 40.5845 70.3622 40.4392 70.0998C40.2985 69.8326 40.2282 69.535 40.2282 69.2069C40.2282 68.8741 40.2985 68.5764 40.4392 68.314C40.5845 68.0468 40.779 67.8359 41.0227 67.6812C41.2711 67.5218 41.5477 67.4422 41.8523 67.4422C42.1101 67.4422 42.3374 67.4984 42.5343 67.6109C42.7359 67.7187 42.8952 67.8687 43.0124 68.0609C43.1296 68.253 43.1882 68.471 43.1882 68.7147V69.685C43.1882 69.9287 43.1296 70.1466 43.0124 70.3388C42.8999 70.531 42.7429 70.6833 42.5413 70.7958C42.3398 70.9036 42.1101 70.9575 41.8523 70.9575ZM41.9789 70.2263C42.2648 70.2263 42.4945 70.1302 42.6679 69.9381C42.846 69.7459 42.9351 69.4998 42.9351 69.1998C42.9351 68.9983 42.8952 68.8202 42.8155 68.6655C42.7359 68.5108 42.6234 68.3913 42.4781 68.3069C42.3374 68.2179 42.1711 68.1734 41.9789 68.1734C41.7914 68.1734 41.625 68.2179 41.4797 68.3069C41.3391 68.3913 41.2266 68.5108 41.1422 68.6655C41.0625 68.8202 41.0227 68.9983 41.0227 69.1998C41.0227 69.4014 41.0625 69.5795 41.1422 69.7342C41.2266 69.8888 41.3391 70.0107 41.4797 70.0998C41.625 70.1841 41.7914 70.2263 41.9789 70.2263ZM42.8858 70.8872V69.9802L43.0194 69.1577L42.8858 68.3421V67.5125H43.6592V70.8872H42.8858ZM45.6213 70.9575C45.4339 70.9575 45.2534 70.9341 45.08 70.8872C44.9065 70.8356 44.7472 70.7653 44.6019 70.6763C44.4566 70.5825 44.33 70.4701 44.2222 70.3388L44.7144 69.8467C44.8316 69.9826 44.9651 70.0857 45.1151 70.156C45.2698 70.2216 45.4432 70.2544 45.6354 70.2544C45.8088 70.2544 45.9401 70.2287 46.0291 70.1771C46.1182 70.1255 46.1627 70.0506 46.1627 69.9521C46.1627 69.849 46.1205 69.7693 46.0361 69.7131C45.9518 69.6568 45.8416 69.61 45.7057 69.5725C45.5745 69.5303 45.4339 69.4881 45.2839 69.4459C45.1386 69.4037 44.9979 69.3475 44.862 69.2772C44.7308 69.2022 44.623 69.1014 44.5386 68.9749C44.4542 68.8483 44.4121 68.6843 44.4121 68.4827C44.4121 68.2671 44.4613 68.082 44.5597 67.9273C44.6628 67.7726 44.8058 67.6531 44.9886 67.5687C45.1761 67.4843 45.3987 67.4422 45.6565 67.4422C45.9283 67.4422 46.1674 67.4914 46.3736 67.5898C46.5845 67.6835 46.7603 67.8265 46.9009 68.0187L46.4088 68.5108C46.3103 68.389 46.1979 68.2976 46.0713 68.2366C45.9447 68.1757 45.7994 68.1452 45.6354 68.1452C45.4807 68.1452 45.3612 68.1687 45.2768 68.2155C45.1925 68.2624 45.1503 68.3304 45.1503 68.4194C45.1503 68.5132 45.1925 68.5858 45.2768 68.6374C45.3612 68.6889 45.469 68.7335 45.6002 68.771C45.7362 68.8085 45.8768 68.8506 46.0221 68.8975C46.1721 68.9397 46.3127 69.0006 46.4439 69.0803C46.5799 69.1553 46.69 69.2584 46.7744 69.3897C46.8587 69.5162 46.9009 69.6826 46.9009 69.8888C46.9009 70.2169 46.7861 70.4771 46.5564 70.6693C46.3268 70.8614 46.0151 70.9575 45.6213 70.9575ZM48.6423 70.9575C48.4549 70.9575 48.2744 70.9341 48.101 70.8872C47.9276 70.8356 47.7682 70.7653 47.6229 70.6763C47.4776 70.5825 47.351 70.4701 47.2432 70.3388L47.7354 69.8467C47.8526 69.9826 47.9861 70.0857 48.1361 70.156C48.2908 70.2216 48.4642 70.2544 48.6564 70.2544C48.8298 70.2544 48.9611 70.2287 49.0501 70.1771C49.1392 70.1255 49.1837 70.0506 49.1837 69.9521C49.1837 69.849 49.1415 69.7693 49.0572 69.7131C48.9728 69.6568 48.8626 69.61 48.7267 69.5725C48.5955 69.5303 48.4549 69.4881 48.3049 69.4459C48.1596 69.4037 48.019 69.3475 47.883 69.2772C47.7518 69.2022 47.644 69.1014 47.5596 68.9749C47.4752 68.8483 47.4331 68.6843 47.4331 68.4827C47.4331 68.2671 47.4823 68.082 47.5807 67.9273C47.6838 67.7726 47.8268 67.6531 48.0096 67.5687C48.1971 67.4843 48.4197 67.4422 48.6775 67.4422C48.9494 67.4422 49.1884 67.4914 49.3946 67.5898C49.6056 67.6835 49.7813 67.8265 49.9219 68.0187L49.4298 68.5108C49.3314 68.389 49.2189 68.2976 49.0923 68.2366C48.9658 68.1757 48.8205 68.1452 48.6564 68.1452C48.5017 68.1452 48.3822 68.1687 48.2978 68.2155C48.2135 68.2624 48.1713 68.3304 48.1713 68.4194C48.1713 68.5132 48.2135 68.5858 48.2978 68.6374C48.3822 68.6889 48.49 68.7335 48.6213 68.771C48.7572 68.8085 48.8978 68.8506 49.0431 68.8975C49.1931 68.9397 49.3337 69.0006 49.4649 69.0803C49.6009 69.1553 49.711 69.2584 49.7954 69.3897C49.8798 69.5162 49.9219 69.6826 49.9219 69.8888C49.9219 70.2169 49.8071 70.4771 49.5774 70.6693C49.3478 70.8614 49.0361 70.9575 48.6423 70.9575ZM53.2677 70.9575C52.9396 70.9575 52.642 70.8989 52.3748 70.7817C52.1123 70.6599 51.8897 70.4841 51.7069 70.2544L52.2553 69.706C52.3537 69.856 52.492 69.9756 52.6701 70.0646C52.8482 70.1537 53.0427 70.1982 53.2537 70.1982C53.4552 70.1982 53.6286 70.1607 53.7739 70.0857C53.9192 70.0107 54.0317 69.9053 54.1114 69.7693C54.1958 69.6334 54.238 69.4764 54.238 69.2983C54.238 69.1108 54.1958 68.9514 54.1114 68.8202C54.0317 68.6889 53.9146 68.5882 53.7599 68.5179C53.6099 68.4429 53.4271 68.4054 53.2115 68.4054C53.1271 68.4054 53.0404 68.4124 52.9513 68.4265C52.8623 68.4358 52.7826 68.4522 52.7123 68.4757L53.0709 68.0116C53.1693 67.9741 53.2724 67.9437 53.3802 67.9202C53.4927 67.8921 53.6005 67.8781 53.7036 67.8781C53.9567 67.8781 54.1841 67.939 54.3856 68.0609C54.5918 68.1827 54.7536 68.3538 54.8707 68.5741C54.9926 68.7897 55.0535 69.0452 55.0535 69.3405C55.0535 69.6592 54.9785 69.9404 54.8285 70.1841C54.6786 70.4279 54.47 70.6177 54.2028 70.7536C53.9356 70.8896 53.624 70.9575 53.2677 70.9575ZM52.7123 68.4757V67.9976L54.027 66.4649L54.9973 66.4438L53.6263 68.0187L52.7123 68.4757ZM51.953 66.6899V65.9657H54.9973V66.4438L54.3012 66.6899H51.953Z" fill="black" fill-opacity="0.4"/>
<line x1="16" y1="40.3858" x2="30.0614" y2="40.3858" stroke="#17CB49" stroke-width="0.878839"/>
<circle cx="23.0309" cy="40.3856" r="1.75768" fill="#17CB49"/>
<line x1="16" y1="54.273" x2="30.0614" y2="54.273" stroke="#168FFF" stroke-width="0.878839"/>
<circle cx="23.0309" cy="54.2728" r="1.75768" fill="#168FFF"/>
<line x1="16" y1="68.1602" x2="30.0614" y2="68.1602" stroke="#FF0800" stroke-width="0.878839"/>
<circle cx="23.0309" cy="68.16" r="1.75768" fill="#FF0800"/>
</svg>
