<svg width="37" height="37" viewBox="0 0 37 37" fill="none" xmlns="http://www.w3.org/2000/svg">
<g clip-path="url(#clip0_29_917)">
<path d="M27.6576 27.6575C25.0222 29.6663 21.8133 30.7792 18.5001 30.8334C7.70842 30.8334 1.54175 18.5 1.54175 18.5C3.45941 14.9263 6.11917 11.804 9.34258 9.34254M15.2626 6.53671C16.3238 6.28831 17.4102 6.16415 18.5001 6.16671C29.2917 6.16671 35.4584 18.5 35.4584 18.5C34.5226 20.2508 33.4065 21.899 32.1284 23.418M21.7684 21.7684C21.345 22.2228 20.8344 22.5872 20.2671 22.84C19.6997 23.0928 19.0873 23.2287 18.4663 23.2397C17.8453 23.2506 17.2285 23.1364 16.6526 22.9038C16.0767 22.6712 15.5535 22.325 15.1143 21.8858C14.6752 21.4466 14.3289 20.9235 14.0963 20.3476C13.8637 19.7717 13.7495 19.1548 13.7604 18.5338C13.7714 17.9128 13.9073 17.3004 14.1601 16.7331C14.4129 16.1657 14.7773 15.6551 15.2317 15.2317" stroke="black" stroke-width="3.08333" stroke-linecap="round" stroke-linejoin="round"/>
<path d="M1.54175 1.54167L35.4584 35.4583" stroke="black" stroke-width="3.08333" stroke-linecap="round" stroke-linejoin="round"/>
</g>
<defs>
<clipPath id="clip0_29_917">
<rect width="37" height="37" fill="white"/>
</clipPath>
</defs>
</svg>
