<svg width="84" height="84" viewBox="0 0 84 84" fill="none" xmlns="http://www.w3.org/2000/svg">
<rect x="2.77135" y="2.74287" width="78.6857" height="78.6857" rx="2.31429" fill="#00C0FF" fill-opacity="0.15" stroke="black" stroke-width="3.6"/>
<path d="M42.1141 36.6002C48.9308 36.6002 54.4569 34.7581 54.4569 32.4859C54.4569 30.2136 48.9308 28.3716 42.1141 28.3716C35.2973 28.3716 29.7712 30.2136 29.7712 32.4859C29.7712 34.7581 35.2973 36.6002 42.1141 36.6002Z" stroke="#00C0FF" stroke-width="2.74286" stroke-linecap="round" stroke-linejoin="round"/>
<path d="M54.4569 42.0858C54.4569 44.3624 48.9712 46.2001 42.1141 46.2001C35.2569 46.2001 29.7712 44.3624 29.7712 42.0858" stroke="#00C0FF" stroke-width="2.74286" stroke-linecap="round" stroke-linejoin="round"/>
<path d="M29.7712 32.4858V51.6858C29.7712 53.9624 35.2569 55.8001 42.1141 55.8001C48.9712 55.8001 54.4569 53.9624 54.4569 51.6858V32.4858" stroke="#00C0FF" stroke-width="2.74286" stroke-linecap="round" stroke-linejoin="round"/>
</svg>
