<svg width="84" height="83" viewBox="0 0 84 83" fill="none" xmlns="http://www.w3.org/2000/svg">
<rect x="2.77117" y="2.08577" width="78.6857" height="78.6857" rx="2.31429" fill="#00D559" fill-opacity="0.15" stroke="black" stroke-width="3.6"/>
<path d="M40.7424 30.4573H31.1424C30.4149 30.4573 29.7173 30.7463 29.2029 31.2606C28.6885 31.775 28.3995 32.4727 28.3995 33.2001V52.4001C28.3995 53.1276 28.6885 53.8252 29.2029 54.3396C29.7173 54.854 30.4149 55.143 31.1424 55.143H50.3424C51.0698 55.143 51.7675 54.854 52.2819 54.3396C52.7963 53.8252 53.0853 53.1276 53.0853 52.4001V42.8001" stroke="#00D559" stroke-width="2.74286" stroke-linecap="round" stroke-linejoin="round"/>
<path d="M51.0281 28.4002C51.5737 27.8546 52.3136 27.5481 53.0852 27.5481C53.8568 27.5481 54.5968 27.8546 55.1424 28.4002C55.688 28.9458 55.9945 29.6858 55.9945 30.4573C55.9945 31.2289 55.688 31.9689 55.1424 32.5145L42.1138 45.5431L36.6281 46.9145L37.9995 41.4288L51.0281 28.4002Z" stroke="#00D559" stroke-width="2.74286" stroke-linecap="round" stroke-linejoin="round"/>
</svg>
