<svg width="22" height="22" viewBox="0 0 22 22" fill="none" xmlns="http://www.w3.org/2000/svg">
<circle cx="11" cy="11" r="11" fill="#FFBA07" fill-opacity="0.25"/>
<path d="M10.5245 4.46352C10.6741 4.00287 11.3259 4.00287 11.4755 4.46353L12.6839 8.18237C12.7508 8.38838 12.9428 8.52786 13.1594 8.52786H17.0696C17.554 8.52786 17.7554 9.14767 17.3635 9.43237L14.2001 11.7307C14.0248 11.8581 13.9515 12.0838 14.0184 12.2898L15.2268 16.0086C15.3764 16.4693 14.8492 16.8523 14.4573 16.5676L11.2939 14.2693C11.1186 14.1419 10.8814 14.1419 10.7061 14.2693L7.54267 16.5676C7.15081 16.8523 6.62357 16.4693 6.77325 16.0086L7.98157 12.2898C8.04851 12.0838 7.97518 11.8581 7.79994 11.7307L4.6365 9.43237C4.24464 9.14767 4.44603 8.52786 4.93039 8.52786H8.84062C9.05723 8.52786 9.24921 8.38838 9.31614 8.18237L10.5245 4.46352Z" fill="#FFBA07"/>
</svg>
